<?xml version="1.0" standalone="no"?>
<!DOCTYPE svg PUBLIC "-//W3C//DTD SVG 20010904//EN"
 "http://www.w3.org/TR/2001/REC-SVG-20010904/DTD/svg10.dtd">
<svg version="1.0" xmlns="http://www.w3.org/2000/svg"
 width="1449.000000pt" height="1449.000000pt" viewBox="0 0 1449.000000 1449.000000"
 preserveAspectRatio="xMidYMid meet">

<g transform="translate(0.000000,1449.000000) scale(0.100000,-0.100000)" stroke="none">
<path d="M261 14470 c-89 -19 -182 -96 -223 -185 -32 -71 -31 -190 1 -260 20
-42 1204 -1230 6985 -7011 5719 -5720 6970 -6966 7011 -6985 41 -19 66 -24
135 -24 73 0 93 4 142 28 111 55 172 152 173 277 0 150 160 -22 -1761 1900
l-1724 1725 0 3310 0 3310 -795 953 -794 953 -3 617 c-3 608 -3 618 -25 664
-31 68 -94 131 -161 161 -56 25 -116 31 -1849 188 -1986 180 -1849 173 -1948
107 -26 -17 -62 -52 -81 -77 -64 -89 -64 -93 -64 -748 l0 -592 -722 -841 -722
-841 -1671 1670 c-1558 1557 -1673 1670 -1720 1685 -67 21 -131 27 -184 16z
m6893 -995 c644 -58 1269 -114 1388 -125 119 -11 219 -20 222 -20 3 0 6 -142
6 -315 0 -293 -1 -315 -17 -315 -10 -1 -651 56 -1425 127 l-1408 127 0 313 0
313 32 0 c17 0 559 -47 1202 -105z m491 -1314 c484 -45 884 -81 889 -81 4 0 5
-7 2 -16 -8 -22 -1165 -1875 -1181 -1893 -11 -11 -254 27 -1529 240 -834 140
-1515 257 -1513 260 2 7 1261 1479 1363 1594 l62 71 513 -48 c283 -25 910 -83
1394 -127z m1971 -936 c390 -469 471 -571 457 -577 -25 -10 -1885 -379 -1895
-376 -4 2 207 346 469 766 262 419 481 761 486 759 5 -1 222 -259 483 -572z
m744 -3912 l0 -2738 -1270 1270 -1270 1270 0 1216 0 1216 1248 251 c686 137
1257 250 1270 251 l22 1 0 -2737z m-4230 2402 c577 -96 1052 -175 1055 -175 3
0 5 -400 5 -890 0 -489 -3 -890 -8 -890 -4 0 -486 479 -1072 1065 -623 623
-1058 1065 -1047 1065 9 0 490 -79 1067 -175z"/>
<path d="M3382 5455 l3 -4310 27 -50 c35 -67 102 -128 169 -152 32 -12 858
-154 1990 -342 l1937 -322 1627 325 c1178 236 1641 332 1678 349 66 31 120 85
155 156 l27 56 3 489 3 490 -318 318 -318 318 -5 -642 -5 -642 -1260 -253
c-693 -138 -1263 -252 -1267 -253 -5 0 -8 975 -8 2168 l0 2167 -315 315 -315
315 0 -1058 c0 -1000 -1 -1057 -17 -1057 -10 0 -726 117 -1590 261 l-1573 262
0 1742 0 1742 763 -128 c419 -71 765 -128 770 -126 4 1 -167 176 -380 388
l-388 386 -325 52 c-179 29 -351 57 -382 63 l-58 10 0 322 0 321 -315 315
-315 315 2 -4310z m2240 -2005 c856 -143 1559 -260 1562 -260 3 0 6 -497 6
-1105 0 -1046 -1 -1105 -17 -1104 -10 0 -724 118 -1588 263 l-1570 262 -3
1108 -2 1108 27 -6 c16 -3 728 -123 1585 -266z"/>
</g>
</svg>
